<?xml version="1.0" standalone="no"?>
<!DOCTYPE svg PUBLIC "-//W3C//DTD SVG 20010904//EN"
 "http://www.w3.org/TR/2001/REC-SVG-20010904/DTD/svg10.dtd">
<svg version="1.0" xmlns="http://www.w3.org/2000/svg"
 width="512.000000pt" height="512.000000pt" viewBox="0 0 512.000000 512.000000"
 preserveAspectRatio="xMidYMid meet">

<g transform="translate(0.000000,512.000000) scale(0.100000,-0.100000)"
fill="#000000" stroke="none">
<path d="M2521 5023 c-12 -10 -78 -124 -146 -253 l-123 -235 -249 -43 c-307
-52 -290 -49 -313 -72 -42 -42 -29 -64 117 -214 76 -78 164 -168 195 -201 l58
-61 -39 -269 c-57 -397 -66 -391 290 -214 l249 123 248 -123 c356 -177 348
-183 291 214 l-39 269 58 61 c31 33 119 123 195 201 138 142 150 161 127 203
-15 28 -48 37 -318 82 l-253 43 -118 225 c-65 124 -129 238 -144 254 -30 31
-56 34 -86 10z"/>
<path d="M1062 4263 c-10 -16 -40 -69 -66 -119 -25 -50 -52 -98 -59 -107 -8
-12 -54 -24 -152 -42 -113 -19 -143 -28 -157 -46 -35 -42 -24 -64 85 -177
l103 -107 -20 -143 c-22 -155 -20 -165 27 -192 25 -14 32 -12 159 51 l133 66
135 -64 c144 -69 167 -72 196 -29 14 23 14 36 -5 166 l-21 142 98 104 c53 58
100 113 103 122 10 28 -10 69 -39 81 -15 6 -83 20 -152 31 -68 12 -125 22
-126 23 -1 1 -29 55 -64 120 -34 65 -69 124 -77 132 -25 26 -79 19 -101 -12z"/>
<path d="M3957 4275 c-8 -8 -43 -67 -77 -132 -35 -65 -63 -119 -64 -120 0 -1
-57 -11 -126 -23 -69 -12 -137 -26 -152 -32 -29 -11 -49 -52 -39 -80 3 -9 50
-64 103 -122 l98 -104 -21 -142 c-19 -130 -19 -143 -5 -166 29 -43 53 -40 197
29 l134 64 133 -66 c127 -63 134 -65 159 -51 47 27 49 37 27 192 l-20 143 103
107 c109 113 120 135 86 177 -15 17 -46 27 -158 47 -95 17 -144 30 -152 41 -7
9 -34 57 -59 107 -68 133 -79 146 -119 146 -18 0 -40 -7 -48 -15z"/>
<path d="M2455 3030 c-307 -30 -541 -187 -569 -381 -4 -30 1 -91 15 -175 26
-157 32 -171 52 -122 57 137 240 208 537 208 135 0 508 -27 563 -41 74 -19
137 -98 137 -170 0 -45 7 -33 30 49 31 112 28 147 -20 198 -49 53 -51 82 -14
180 58 155 29 203 -141 239 -95 19 -452 29 -590 15z"/>
<path d="M2252 2395 c-77 -17 -140 -51 -158 -87 -17 -32 -18 -131 -3 -214 39
-223 154 -406 298 -476 62 -31 73 -33 171 -33 99 0 110 2 172 33 144 71 258
253 297 476 13 73 14 273 2 280 -5 3 -89 13 -187 21 -220 19 -506 18 -592 0z"/>
<path d="M1835 2146 c-62 -62 -5 -145 91 -134 25 2 28 7 25 28 -2 14 -6 48
-10 75 -6 49 -7 50 -43 53 -29 3 -43 -2 -63 -22z"/>
<path d="M3187 2163 c-3 -5 -8 -41 -12 -80 l-7 -73 36 0 c94 0 140 77 81 135
-23 24 -88 35 -98 18z"/>
<path d="M2655 1443 c-57 -13 -130 -12 -217 3 -27 5 -38 3 -38 -6 0 -15 160
-185 174 -185 17 0 176 170 176 189 0 19 -12 19 -95 -1z"/>
<path d="M2260 1322 c0 -6 61 -216 83 -285 1 -4 30 17 65 48 l62 57 -87 92
c-77 81 -123 114 -123 88z"/>
<path d="M2766 1235 l-86 -93 62 -56 62 -56 43 142 c23 79 43 144 43 144 0 1
-8 4 -19 7 -13 3 -41 -20 -105 -88z"/>
<path d="M2000 1264 c-170 -58 -301 -149 -345 -239 -19 -38 -20 -66 -23 -493
l-3 -452 131 0 130 0 0 314 c0 302 1 314 21 340 28 36 80 36 108 0 20 -26 21
-38 21 -340 l0 -314 520 0 520 0 0 314 c0 302 1 314 21 340 28 36 80 36 108 0
20 -26 21 -38 21 -340 l0 -314 130 0 130 0 0 439 c0 481 -1 486 -60 562 -44
55 -164 131 -261 166 -148 53 -128 64 -179 -105 -91 -306 -94 -312 -151 -312
-21 0 -57 26 -145 103 -64 56 -119 101 -121 101 -3 -1 -57 -47 -120 -103 -120
-105 -145 -117 -189 -87 -14 10 -38 75 -84 230 -74 246 -60 231 -180 190z
m618 -620 c12 -14 22 -34 22 -45 0 -27 -53 -79 -80 -79 -26 0 -80 52 -80 77 0
25 27 63 54 73 29 12 57 3 84 -26z m-19 -274 c31 -16 45 -64 29 -97 -40 -84
-174 -29 -138 58 19 46 66 63 109 39z"/>
</g>
</svg>
